# xmcd CD database file
#
# Track frame offsets:
#	150
#	27229
#	51618
#	71541
#	86249
#	108896
#	124838
#	145987
#
# Disc length: 2243 seconds
#
# Revision: 0
# Processed by: cddbd v1.5.2PL0 Copyright (c) Steve Scherf et al.
# Submitted via: CDex 1.51
#
DISCID=7408c108
DTITLE=Adalberto Santiago - Adalberto
DYEAR=1977
DGENRE=Salsa
TTITLE0=Imposible Ha De Ser
TTITLE1=La Cana
TTITLE2=Llevale A Mi Amor
TTITLE3=Las Puertas De Mi Casa
TTITLE4=Tu Me Desesperas
TTITLE5=Luces De Nueva York
TTITLE6=Tirita
TTITLE7=Llevame
EXTD=YEAR: 1977
EXTT0=
EXTT1=
EXTT2=
EXTT3=
EXTT4=
EXTT5=
EXTT6=
EXTT7=
PLAYORDER=
